<?xml version="1.0" encoding="UTF-8" standalone="no"?>
<!DOCTYPE svg PUBLIC "-//W3C//DTD SVG 1.1//EN" "http://www.w3.org/Graphics/SVG/1.1/DTD/svg11.dtd">
<svg width="100%" height="100%" viewBox="0 0 1280 700" version="1.1" xmlns="http://www.w3.org/2000/svg" xmlns:xlink="http://www.w3.org/1999/xlink" xml:space="preserve" xmlns:serif="http://www.serif.com/" style="fill-rule:evenodd;clip-rule:evenodd;stroke-linejoin:round;stroke-miterlimit:2;">
    <path d="M473.148,369.253l-239.377,232.496l-184.335,-540.727l423.712,308.231Z" style="fill:rgb(178,36,241);"/>
    <path d="M1204.54,395.858l25.072,216.003l-580.967,-65.111l555.895,-150.892Z" style="fill:rgb(255,62,181);"/>
    <path d="M829.358,202.355l-473.731,-137.77l621.351,-49.872l-147.62,187.642Z" style="fill:rgb(88,215,201);"/>
    <path d="M91.2,131.622c-3.869,-11.136 -16.051,-17.036 -27.187,-13.168l-15.81,5.493c-11.136,3.868 -17.037,16.05 -13.168,27.186l5.323,15.325c3.869,11.136 16.051,17.036 27.187,13.168l15.81,-5.492c11.136,-3.869 17.037,-16.051 13.168,-27.187l-5.323,-15.325Z" style="fill:rgb(235,235,235);"/>
    <path d="M1205.47,197.994l20.382,14.205l-2.118,24.738l-22.501,10.533l-20.382,-14.205l2.118,-24.738l22.501,-10.533Z" style="fill:rgb(235,235,235);"/>
    <path d="M437.686,534.457l17.01,18.107l-7.181,23.767l-24.19,5.66l-17.01,-18.107l7.18,-23.767l24.191,-5.66Z" style="fill:rgb(235,235,235);"/>
    <path d="M969.397,419.282l24.775,1.857l10.764,22.374l-14.011,20.516l-24.774,-1.857l-10.764,-22.373l14.01,-20.517Z" style="fill:rgb(235,235,235);"/>
    <path d="M535.713,181.163l28.09,15.782l-11.326,30.164l-28.09,-15.782l11.326,-30.164Z" style="fill:rgb(235,235,235);"/>
    <path d="M1234.6,564.517l2.029,27.926l-22.427,16.764l-2.029,-27.926l22.427,-16.764Z" style="fill:rgb(235,235,235);"/>
    <path d="M839.665,341.31l10.739,35.111l-32.954,-5.878l22.215,-29.233Z" style="fill:rgb(235,235,235);"/>
    <path d="M59.783,483.754l5.872,-36.244l26.97,19.828l-32.842,16.416Z" style="fill:rgb(235,235,235);"/>
    <path d="M1115.72,633.635l-53.263,18.916l4.858,-28.543l26.631,-9.459l21.774,19.086Z" style="fill:rgb(235,235,235);"/>
    <path d="M759.793,521.614l-47.618,-23.001l22.131,-15.423l23.81,11.5l1.677,26.924Z" style="fill:rgb(235,235,235);"/>
    <path d="M604.923,427.386c-2.702,-7.778 -11.211,-11.9 -18.989,-9.198l-10.704,3.719c-7.778,2.702 -11.899,11.211 -9.197,18.989l4.206,12.11c2.703,7.779 11.211,11.9 18.99,9.198l10.704,-3.719c7.778,-2.702 11.899,-11.21 9.197,-18.989l-4.207,-12.11Z" style="fill:rgb(235,235,235);"/>
    <path d="M536.001,312.438l26.346,25.573l-31.701,10.751l5.355,-36.324Z" style="fill:rgb(235,235,235);"/>
    <path d="M439.403,118.463l4.339,-24.462l23.342,-8.46l19.004,16.003l-4.338,24.462l-23.343,8.46l-19.004,-16.003Z" style="fill:rgb(235,235,235);"/>
    <path d="M86.963,378.58l18.527,-26.361l28.872,14.301l-18.526,26.361l-28.873,-14.301Z" style="fill:rgb(235,235,235);"/>
    <path d="M292.54,22.203l36.013,-7.154l-9.161,32.196l-26.852,-25.042Z" style="fill:rgb(235,235,235);"/>
    <path d="M41.382,20.505l-51.759,10.842l8.119,-25.725l25.879,-5.421l17.761,20.304Z" style="fill:rgb(235,235,235);"/>
    <path d="M370.653,267.37c-8.011,1.906 -12.967,9.958 -11.061,17.968l2.624,11.024c1.906,8.01 9.957,12.966 17.968,11.06l12.472,-2.968c8.01,-1.906 12.966,-9.957 11.06,-17.968l-2.623,-11.023c-1.907,-8.011 -9.958,-12.967 -17.968,-11.061l-12.472,2.968Z" style="fill:rgb(235,235,235);"/>
    <path d="M197.659,311.697l28.093,-23.641l7.509,32.621l-35.602,-8.98Z" style="fill:rgb(235,235,235);"/>
    <path d="M583.881,649.607l21.758,11.938l-10.463,22.505l-21.758,-11.939l10.463,-22.504Z" style="fill:rgb(235,235,235);"/>
    <path d="M1.7,620.194l21.758,11.938l-10.463,22.505l-21.758,-11.938l10.463,-22.505Z" style="fill:rgb(235,235,235);"/>
    <path d="M240.555,634.112l49.267,-19.218l-3.771,26.71l-24.634,9.609l-20.862,-17.101Z" style="fill:rgb(235,235,235);"/>
    <path d="M370.831,495.941l-36.668,1.887l13.708,-30.539l22.96,28.652Z" style="fill:rgb(235,235,235);"/>
    <path d="M1146.85,55.551l-25.154,-16.387l23.751,-13.602l1.403,29.989Z" style="fill:rgb(235,235,235);"/>
    <path d="M893.64,635.074c5.783,-5.862 5.718,-15.316 -0.144,-21.098l-8.067,-7.958c-5.862,-5.783 -15.316,-5.718 -21.099,0.144l-9.003,9.127c-5.782,5.863 -5.718,15.317 0.144,21.099l8.068,7.958c5.862,5.782 15.316,5.718 21.098,-0.145l9.003,-9.127Z" style="fill:rgb(235,235,235);"/>
    <path d="M1131.88,481.953c-2.879,-6.39 -10.405,-9.241 -16.795,-6.362l-8.794,3.962c-6.391,2.879 -9.242,10.405 -6.363,16.795l4.759,10.563c2.879,6.39 10.405,9.241 16.795,6.362l8.794,-3.962c6.391,-2.879 9.242,-10.405 6.363,-16.795l-4.759,-10.563Z" style="fill:rgb(235,235,235);"/>
    <path d="M873.039,100.005l16.933,18.18l-7.281,23.736l-24.214,5.558l-16.933,-18.18l7.281,-23.736l24.214,-5.558Z" style="fill:rgb(235,235,235);"/>
    <path d="M1135.91,368.345l-51.954,-22.26l22.941,-17.665l25.978,11.13l3.035,28.795Z" style="fill:rgb(235,235,235);"/>
    <path d="M970.612,288.756c8.225,-0.38 14.595,-7.367 14.215,-15.592l-0.524,-11.32c-0.38,-8.225 -7.367,-14.595 -15.592,-14.215l-12.807,0.592c-8.225,0.381 -14.595,7.367 -14.214,15.593l0.523,11.319c0.38,8.226 7.367,14.595 15.592,14.215l12.807,-0.592Z" style="fill:rgb(235,235,235);"/>
    <path d="M1286.56,43.178c1.111,-9.522 -5.717,-18.155 -15.239,-19.267l-13.104,-1.53c-9.522,-1.112 -18.155,5.716 -19.267,15.238l-1.732,14.825c-1.112,9.523 5.717,18.156 15.239,19.268l13.104,1.53c9.522,1.112 18.155,-5.716 19.267,-15.238l1.732,-14.826Z" style="fill:rgb(235,235,235);"/>
    <path d="M589.091,542.826l5.015,10.932l11.946,-1.391l-8.847,8.147l5.014,10.932l-10.482,-5.896l-8.847,8.147l2.368,-11.792l-10.482,-5.896l11.946,-1.391l2.369,-11.792Z" style="fill:rgb(235,235,235);"/>
    <path d="M1034.63,97.519l0.669,17.863l17.018,4.766l-16.605,6.274l0.669,17.863l-10.932,-13.986l-16.605,6.274l9.849,-14.917l-10.931,-13.986l17.019,4.766l9.849,-14.917Z" style="fill:rgb(235,235,235);"/>
    <path d="M261.324,74.663l0.918,11.993l11.688,2.832l-11.121,4.579l0.918,11.992l-7.792,-9.162l-11.121,4.579l6.306,-10.242l-7.791,-9.162l11.689,2.833l6.306,-10.242Z" style="fill:rgb(235,235,235);"/>
    <path d="M94.696,603.776l13.101,2.061l6.009,-11.824l2.089,13.097l13.101,2.061l-11.81,6.034l2.088,13.097l-9.388,-9.368l-11.81,6.034l6.008,-11.824l-9.388,-9.368Z" style="fill:rgb(235,235,235);"/>
    <path d="M671.133,282.976l17.417,-7.304l-1.564,-18.822l12.329,14.307l17.417,-7.304l-9.798,16.147l12.329,14.308l-18.384,-4.329l-9.798,16.147l-1.564,-18.822l-18.384,-4.328Z" style="fill:rgb(235,235,235);"/>
</svg>
